# xmcd
#
# Track frame offsets:
#	182
#	12557
#	24050
#	38640
#	55400
#	72745
#	83547
#	96240
#	109567
#	127755
#	139782
#	153137
#	164977
#	179127
#	193182
#	210722
#	223482
#	233747
#	245020
#	260297
#	272835
#	286745
#	301130
#	315520
#
# Disc length: 4354 seconds
#
# Revision: 2
# Processed by: cddbd v1.5.2PL0 Copyright (c) Steve Scherf et al.
# Submitted via: EZCDAudioConverter 8.2.2.1
#
DISCID=5c110018
DTITLE=LOURENÇO and LOURIVAL - DOSE DUPLA VOL. 2 (LEMBRANÇAS QUE O TEMPO NÃO APA
DTITLE=GA - 1979, A CRUZ QUE CARREGO - 1977 [CD C063014260-2) CHANTECLER
DYEAR=1996
DGENRE=Sertaneja
TTITLE0=DUELO DE AMOR (BY GILMAR SINISTRO)
TTITLE1=DESENCOSTE DA CHIQUINHA (BY GILMAR SINISTRO)
TTITLE2=ROUBEI UMA CASADA (BY GILMAR SINISTRO)
TTITLE3=BOI FUMAÇA (BY GILMAR SINISTRO)
TTITLE4=CASINHA DE OURO (BY GILMAR SINISTRO)
TTITLE5=MALMEQUER (BY GILMAR SINISTRO)
TTITLE6=MORENA DOS OLHOS PRETOS (BY GILMAR SINISTRO)
TTITLE7=MEU NATAL SEM MAMÃE (BY GILMAR SINISTRO)
TTITLE8=VELHA PORTEIRA (BY GILMAR SINISTRO)
TTITLE9=LENDA DA VALSA DOS NOIVOS (BY GILMAR SINISTRO)
TTITLE10=LEMBRANÇAS QUE O TEMPO NÃO APAGA (BY GILMAR SINISTRO)
TTITLE11=BEIJO INOCENTE (BY GILMAR SINISTRO)
TTITLE12=ARMADILHA DO DESTINO (BY GILMAR SINISTRO)
TTITLE13=A CRUZ QUE CARREGO (BY GILMAR SINISTRO)
TTITLE14=O MUNDO SERÁ O TEU PROFESSOR (BY GILMAR SINISTRO)
TTITLE15=PREFIRO SUPORTAR A SAUDADE (BY GILMAR SINISTRO)
TTITLE16=MEU CORAÇÃO DE FERRO (BY GILMAR SINISTRO)
TTITLE17=PERDIDO DE AMOR (BY GILMAR SINISTRO)
TTITLE18=SENTIMENTO DE PAI (BY GILMAR SINISTRO)
TTITLE19=HERANÇA DE UM BEIJO (BY GILMAR SINISTRO)
TTITLE20=O RICO POBRE (BY GILMAR SINISTRO)
TTITLE21=NATAL DO HOMEM POBRE (BY GILMAR SINISTRO)
TTITLE22=O ANDARILHO (BY GILMAR SINISTRO)
TTITLE23=AMANTE DA TERNURA (BY GILMAR SINISTRO)
EXTD=
EXTT0=
EXTT1=
EXTT2=
EXTT3=
EXTT4=
EXTT5=
EXTT6=
EXTT7=
EXTT8=
EXTT9=
EXTT10=
EXTT11=
EXTT12=
EXTT13=
EXTT14=
EXTT15=
EXTT16=
EXTT17=
EXTT18=
EXTT19=
EXTT20=
EXTT21=
EXTT22=
EXTT23=
PLAYORDER=
